<?xml version="1.0" encoding="utf-8"?>
<!-- Generator: Adobe Illustrator 22.1.0, SVG Export Plug-In . SVG Version: 6.00 Build 0)  -->
<svg version="1.1" id="Layer_1" xmlns="http://www.w3.org/2000/svg" xmlns:xlink="http://www.w3.org/1999/xlink" x="0px" y="0px"
	 viewBox="0 0 512 512" style="enable-background:new 0 0 512 512;" xml:space="preserve">
<style type="text/css">
	.st0{fill:#222222;}
</style>
<g>
	<path class="st0" d="M397.9,251.3c2.8-2.9,5.8-5.8,8.8-8.5c3-2.4,20,0.2,32.9-7.8c12.9-8.1,28.6-27.1,32.8-35
		c4.3-7.9,4.3-13,5.5-22.5l2.6-19.6c0,0-14,2.2-23.8,4.6c-8.3,2.1-16,6.1-22.5,11.7c-5.8,4.8-4.4,0.7-11.5,7.5s-14.1,18.7-17.6,30.1
		c-3.5,11.4-1.4,26.3-2.2,28.9c-0.5,1.8-3,4.4-4.6,6l1.7-22.5c0.7-10.7,0.4-22.3,0-29.1l-0.9-7.4c2.3-2.2,9.5-9.4,13.2-12.3
		c4.4-3.5,17.5-2.9,27.7-10.5c9.7-7.3,25.2-28,22.4-46.7c-2.8-18.7-11.8-31.4-11.8-31.4s-18.9,4.5-30.2,13.7
		c-11.2,9.2-23.9,29.7-21.9,44.8c2,15,11.3,21.1,11,26c-0.2,4.2-8.7,10.1-11.2,11.8c-0.4-2.2-0.6-4.5-0.5-6.8
		c0.6-6-3.2-16.5-3.2-16.5s-4-8.9-4.6-11.8c-0.6-2.8,1.4-9.1,3.4-15.2c2-6.1-1-18.4-0.4-25.5c0.6-7.1-2-20.2-2.4-23.5
		c-0.4-3.2-5-14.4-6.7-17l-4.6-8.5c-2.2-3.5-5.8-5.3-8.6-7.9c-2.8-2.5-6-5.8-8-8.3c-2-2.5-6.9-3.9-9.2-4.8c-2.4-0.9-6.3-6.4-6.3-6.4
		s-0.2,6.3-1,9.3c-0.9,3-3.3,4.7-4.6,11.8c-1.3,7-2.5,12.9-2.7,19.1c-0.2,6.1,1.5,19.1,4.4,25.5c2.9,6.4,7,14.2,14.3,24.3
		s26.8,24.7,28.9,27.6l5.1,14.9c0,0,2.2,9.8,2.5,21.6l-0.9,0.3c-1.8,0.4-6.3-3-8.7-5.4c-2.3-2.4-1.7-5.6-4-11.9
		c-2.3-6.4-9.7-21.8-18.7-31.8c-9-10-20.7-13.4-31.5-14.8c-10.8-1.4-30.7,6.6-30.7,6.6s2,13.5,6.3,25.1c4.3,11.5,26,24.7,36.7,28.8
		c10.7,4,36.7,0.7,39.1,1.1l9.5,5.4l2.9-0.4v0.3c0,9.7,2.4,12.8,1.6,20.6c-0.8,7.8,0.5,15.8-1.1,21.5l-3.3,9.3l-3-1.8
		c-1.3-1.5-3.3-6.5-5.8-15c-2.5-8.5-14.9-22.3-22.8-29.5c-7.8-7.2-31.1-12.6-37-10.6l-19.3,0.3c0,0,3.6,15,6.1,21.5
		c2.5,6.5,1,9.5,3.8,15.1c2.8,5.6,4.4,7.9,13,15.3c8.7,7.5,21.1,10.2,31,9.5c10-0.7,26.6-3.6,29.8-3.1c3.2,0.4,4.2,1.9,4.2,1.9
		l0.2-0.4c1,2.8,1.4,7.8,1.1,12.8c-0.4,5.3-1.2,18.9-3.6,29.4c-2.5,10.5-5.5,26.3-7.6,28.4l-4.3,3.6l0,0l-2.5-2.7
		c-2-3.4-0.4-10.7-3.4-25.9c-3-15.1-21-32.7-33.9-39.1c-12.9-6.4-38.4-6.8-38.4-6.8s2.2,14.5,3.8,18.4c1.6,4,0.3,6.8,3.9,17.8
		c3.7,10.9,15.5,21.4,28.8,29.5c13.3,8.2,35,6.2,36.9,8.2l4,4.4c-0.6,3.3-1.5,7.9-3,10.3c-2.3,3.8-7.5,20-16.1,31.2
		c-4.2,5.4-7.2,9.6-9.2,12.5c-1-1-6.1-5.8-7.8-8.4c-1.9-2.9,4.3-14.9,3.2-29.7c-1.2-14.9-9.1-22.1-19.5-31.1l-33.6-8.1
		c0,0-2.1,9.2-2.7,20.6c-0.6,11.4,6.9,24.7,16.8,33.8c9.9,9.1,27,8.9,32.3,15.4c2.6,3.2,9.6,10.1,9.7,10.2l-1.4,2.2
		c0,0-3.4,6.6-8,11.4c-3.4,3.5-15.7,14.5-26.5,22.5c-1.3-2.1-2.4-4.4-3.3-6.7c-1-3.2,4.5-7,3.4-28.7c-1-19.2-23.1-31.2-29.1-35.3
		c-6-4.1-14.4-10.5-14.4-10.5s-14.8,26.1,0.8,52.5c8.6,14.7,35,20.6,36.4,23l3.3,7.6c-3,2.1-5.8,3.9-8.2,5.1l-21.8,12
		c-9,4.2-11,2.2-25.5,11.2c-14.5,9-34.4,24.6-36.4,27.2c0,0,2.5,7.7,3.7,9.2c1.2,1.5,2.4,0.7,3.3-0.1c1-0.8-0.4-4,2-6.1
		c2.4-2,20.2-17.7,26-21.7c5.8-4,14.8-9.1,21.7-11.7c4.4-1.7,13.6-5.8,20.8-9.4l2.2,1.1c1.4,0.1,9.2-0.3,11.6,2.3
		c2.3,2.6,11.1,19.3,16.8,22.6c5.8,3.4,16.6,11.6,28.5,8.2s19.5-2.9,25-6.9c5.5-4,8.4-11.2,8.4-11.2s-2.8-3.1-4.4-6.7
		c-1.6-3.6-10.9-15.2-17.4-18.5c-6.5-3.2-22.9-8.3-32.4-4.7c-9.4,3.7-18.4,11.9-21.8,13.4c-3.4,1.4-11.3-0.5-12.6-1.3l-0.2-0.2
		l5.2-2.9c4.3-3,26.8-20.4,32.5-25.6c3.1-2.8,7.3-7.5,11.5-12.5c2.5,0.3,7.1,1,8.2,1.6c1.6,0.9,13.7,12.9,21.2,15.9
		c7.5,2.9,25.3,10.7,37.3,4.1c12-6.6,20.3-18.8,20.3-18.8s-3.3-7.7-8.5-11.5c-5.2-3.9-20.9-10.1-27.6-10.1c-6.7,0.1-14.4,0-21.3,2.7
		c-6.9,2.7-18.6,12.8-20.1,13.7c-1.2,0.7-4.8-1.1-6.2-1.8l5.8-7.9c5.4-8.2,12.5-18.6,14.5-20.3l1.5-3l10.1-1.7l17.1,7.1
		c6.8,1.4,12.3-0.1,18.8,0.1c6.5,0.1,14.8,4.9,29.8,1.4s29.8-19,29.8-19s-2.5-0.7-4.3-2.7c-2.3-2.7-4.4-5.6-6.3-8.6
		c-3.1-4.5-7.8-7.6-17.6-13.4c-9.7-5.8-24.8-0.8-28.8,0.6c-3.9,1.5-10.5,1.7-18.1,7.1c-7.6,5.4-16.7,21.4-20.2,23.6
		c-3.2,2-8.3,1-9.2,0.8c0.6-2.4,1.2-4.9,2.2-7c2.2-4.6,11-25.5,13.8-32.8c3.1-1.8,9.7-5.7,11.4-6.9c2.3-1.6,4.9-1.8,12.1,0.4
		c7.3,2.2,24.1,3.5,34.8-1.9c10.7-5.5,25.2-23.7,28.5-32.3c3.4-8.7,5.4-23.1,5.4-23.1s-7.3,0.2-10.8,0c-3.5-0.2-12.3-2.6-23.7-1.1
		c-11.4,1.4-25.6,6.1-34.6,17.4c-9,11.3-9.7,34-12.7,37.2c-2.1,2.3-6.4,4.3-8.8,5.2c2.1-8.5,5.6-27.5,6.2-35.7L397.9,251.3z
		 M114.3,251.3c-2.8-2.9-5.8-5.8-8.8-8.5c-3-2.4-20,0.2-32.9-7.8c-12.9-8.1-28.6-27.1-32.8-35c-4.3-7.9-4.3-13-5.5-22.5L31.8,158
		c0,0,14,2.2,23.8,4.6c9.8,2.5,16.7,6.9,22.5,11.7s4.4,0.7,11.6,7.5c7.1,6.8,14.1,18.7,17.6,30c3.5,11.4,1.4,26.3,2.2,28.9
		c0.5,1.8,3,4.4,4.6,6l-1.7-22.5c-0.6-9.7-0.6-19.4,0-29.1l0.9-7.4c-2.3-2.2-9.5-9.4-13.2-12.3c-4.6-3.4-17.6-2.8-27.8-10.4
		c-9.7-7.3-25.2-28-22.4-46.7s11.8-31.4,11.8-31.4s18.9,4.5,30.2,13.7c11.2,9.2,23.9,29.7,21.9,44.8c-2,15-11.3,21.1-11,26
		c0.2,4.2,8.7,10.1,11.2,11.8c0.4-2.7,0.6-5.1,0.5-6.8c-0.6-6,3.2-16.5,3.2-16.5s4-8.9,4.6-11.8c0.6-2.8-1.4-9.1-3.4-15.3
		c-2-6.1,1-18.4,0.4-25.5c-0.6-7.1,2-20.2,2.4-23.5c0.3-3.2,5-14.4,6.7-17l4.6-8.5c2.2-3.5,5.8-5.3,8.6-7.9c2.8-2.5,6-5.8,8-8.3
		c2-2.5,6.9-3.9,9.2-4.8c2.3-0.9,6.2-6.4,6.2-6.4s0.2,6.3,1,9.3c0.9,3,3.3,4.7,4.6,11.8c1.3,7,2.5,12.9,2.7,19.1
		c0.2,6.1-1.5,19.1-4.4,25.5s-7,14.2-14.3,24.3s-26.8,24.7-29,27.6l-5.1,14.9c0,0-2.2,9.8-2.5,21.6l0.9,0.3c1.8,0.4,6.3-3,8.7-5.4
		c2.3-2.4,1.7-5.6,4-11.9c2.3-6.4,9.7-21.8,18.7-31.8c9-10,20.7-13.4,31.5-14.8s30.7,6.6,30.7,6.6s-1.9,13.5-6.3,25.1
		c-4.3,11.5-26,24.7-36.7,28.8c-10.7,4-36.7,0.7-39.1,1.1l-9.5,5.4l-2.9-0.4v0.3c0,9.7-2.4,12.8-1.6,20.6c0.8,7.8-0.5,15.8,1.1,21.5
		l3.3,9.3l3-1.8c1.3-1.5,3.3-6.5,5.8-15c2.5-8.5,14.9-22.3,22.8-29.5c7.8-7.2,31.1-12.6,37-10.6l19.3,0.3c0,0-3.6,15-6.1,21.5
		c-2.5,6.5-1,9.5-3.8,15.1c-2.8,5.6-4.4,7.9-13,15.3c-8.7,7.5-21.1,10.2-31,9.5c-10-0.7-26.6-3.6-29.8-3.1c-3.2,0.4-4.2,1.9-4.2,1.9
		l-0.2-0.4c-1,2.8-1.4,7.8-1.1,12.8c0.4,5.3,1.2,18.9,3.6,29.4c2.5,10.5,5.5,26.3,7.6,28.4l4.3,3.6l0,0l2.5-2.7
		c2-3.4,0.4-10.7,3.4-25.9c3-15.1,21-32.7,33.9-39.1c12.9-6.4,38.4-6.8,38.4-6.8s-2.2,14.5-3.8,18.4c-1.6,4-0.3,6.8-3.9,17.8
		c-3.7,10.9-15.5,21.4-28.8,29.5c-13.3,8.2-34.9,6.2-36.9,8.2l-4,4.4c0.6,3.3,1.5,7.9,3,10.3c2.3,3.8,7.5,20,16.1,31.2
		c4.2,5.4,7.2,9.6,9.2,12.5c1-1,6.1-5.8,7.8-8.4c1.9-2.9-4.3-14.9-3.2-29.7c1.2-14.9,9.1-22.1,19.5-31.1l33.6-8.1
		c0,0,2.1,9.2,2.7,20.6s-6.9,24.7-16.8,33.8c-9.9,9.1-27,8.9-32.3,15.4c-2.6,3.2-9.6,10.1-9.7,10.2l1.4,2.2c0,0,3.4,6.6,8,11.4
		c3.4,3.5,15.7,14.5,26.5,22.5c1.1-1.8,2.7-4.7,3.3-6.7c1-3.2-4.5-7-3.4-28.7c1-19.2,23.1-31.2,29.1-35.3c6-4.1,14.4-10.5,14.4-10.5
		s14.8,26.1-0.8,52.5c-8.6,14.7-35,20.6-36.4,23l-3.3,7.6c3,2.1,5.8,3.9,8.2,5.1l21.8,12c9,4.2,11,2.2,25.5,11.2
		c14.5,9,34.4,24.6,36.4,27.2c0,0-2.5,7.7-3.7,9.2c-1.2,1.5-2.4,0.7-3.3-0.1c-1-0.8,0.4-4-2-6.1c-2.4-2-20.2-17.7-26-21.7
		c-6.8-4.6-14.1-8.6-21.7-11.7c-4.4-1.7-13.6-5.8-20.8-9.4l-2.2,1.1c-1.4,0.1-9.2-0.3-11.6,2.3c-2.3,2.6-11.1,19.3-16.8,22.6
		c-5.8,3.4-16.6,11.6-28.5,8.2s-19.5-2.9-25-6.9s-8.4-11.2-8.4-11.2s2.8-3.1,4.4-6.7c1.6-3.6,10.9-15.2,17.4-18.5
		c6.5-3.2,22.9-8.3,32.4-4.7c9.4,3.7,18.4,11.9,21.8,13.4c3.4,1.4,11.3-0.5,12.6-1.3l0.2-0.2l-5.2-2.9c-4.3-3-26.8-20.4-32.5-25.6
		c-4.1-3.9-7.9-8.1-11.5-12.5c-2.5,0.3-7.1,1-8.2,1.6c-1.6,0.9-13.7,12.9-21.2,15.9c-7.5,2.9-25.3,10.7-37.3,4.1S79,391,79,391
		s3.3-7.7,8.5-11.5c5.2-3.9,20.9-10.1,27.6-10.1c6.7,0.1,14.4,0,21.3,2.7c6.9,2.7,18.6,12.8,20.1,13.7c1.2,0.7,4.8-1.1,6.2-1.8
		l-5.8-7.9c-5.4-8.2-12.5-18.6-14.5-20.3l-1.5-3l-10.1-1.7l-17.1,7.1c-6.8,1.4-12.3-0.1-18.8,0.1c-6.5,0.1-14.8,4.9-29.8,1.4
		s-29.8-19-29.8-19s2.5-0.7,4.3-2.7c2.3-2.7,4.4-5.6,6.3-8.6c3.1-4.5,7.8-7.6,17.6-13.4c9.7-5.8,24.8-0.8,28.8,0.6
		c3.9,1.5,10.5,1.7,18.1,7.1c7.6,5.4,16.7,21.4,20.2,23.6c3.2,2,8.3,1,9.2,0.8c-0.5-2.4-1.3-4.7-2.2-7c-4.8-10.8-9.4-21.7-13.8-32.8
		c-3.9-2.2-7.7-4.5-11.4-6.9c-2.3-1.6-4.9-1.8-12.1,0.4c-7.3,2.2-24.1,3.5-34.9-1.9c-10.7-5.5-25.1-23.7-28.5-32.3
		c-3.3-8.6-5.3-23-5.3-23s7.3,0.2,10.8,0c3.5-0.2,12.3-2.6,23.7-1.1c11.4,1.4,25.6,6.1,34.6,17.4c9,11.3,9.7,34,12.7,37.2
		c2.1,2.3,6.4,4.3,8.8,5.2c-2.1-8.5-5.6-27.5-6.2-35.7L114.3,251.3z"/>
</g>
</svg>
